# xmcd CD database file
#
# Track frame offsets:
#	183
#	13580
#	25910
#	39025
#	51800
#	65850
#	78850
#	88768
#	104773
#	115423
#	128285
#	139660
#	151263
#	162115
#	174838
#	187013
#	196790
#	206810
#	217730
#	228778
#	243978
#	257393
#	271208
#	283023
#
# Disc length: 3945 seconds
#
# Revision: 2
# Processed by: cddbd v1.4PL0 Copyright (c) Steve Scherf et al.
# Submitted via: CDex 1.40Beta9
#
DISCID=3a0f6718
DTITLE=Howlin' Wolf - Moanin' And Howlin'
DYEAR=1988
DGENRE=Blues
TTITLE0=Moanin' At Midnight
TTITLE1=How Many More Years
TTITLE2=Evil (Is Going On)
TTITLE3=Forty Four
TTITLE4=Smokestack Lightnin'
TTITLE5=I Asked For Water (She Gave Me Gasoline)
TTITLE6=The Natchez Burnin'
TTITLE7=Blue Bird
TTITLE8=Who's Been Talkin'
TTITLE9=Walk To Camp Hall
TTITLE10=Sittin' On Top Of The World
TTITLE11=Howling For My Darling
TTITLE12=Wang Dang Doodle
TTITLE13=Back Door Man
TTITLE14=Spoonful
TTITLE15=Down In The Bottom
TTITLE16=Shake For Me
TTITLE17=The Red Rooster
TTITLE18=You'll Be Mine
TTITLE19=Goin' Down Slow
TTITLE20=Tail Dragger
TTITLE21=Three Hundred Pounds Of Joy
TTITLE22=Built For Comfort
TTITLE23=Killing Floor
EXTD=YEAR: 1988 ID3G: 0
EXTT0=
EXTT1=
EXTT2=
EXTT3=
EXTT4=
EXTT5=
EXTT6=
EXTT7=
EXTT8=
EXTT9=
EXTT10=
EXTT11=
EXTT12=
EXTT13=
EXTT14=
EXTT15=
EXTT16=
EXTT17=
EXTT18=
EXTT19=
EXTT20=
EXTT21=
EXTT22=
EXTT23=
PLAYORDER=
